                     Cold Blooded (2003) 
                     +++++++++++++++++++

This film is based on Ian Adams 1983 novel Bad Faith, and filmed in Calgary and Montreal during March 2000 by Alberta FilmWorks — is now distributed worldwide by Oasis under the title, Cold Blooded.

Plot: A serial murderer of teenage girls is loose, and working the case are a possibly corrupt detective Lou Miles a probably corrupt chief inspector Brodsky and his "favorite snitch." Dark personal histories and current politics mix to get the ambitious DA and her investigator involved. 

Director: Randy Bradshaw
  Writer: Ian Adams (based on his novel Bad Faith)
   Stars: Tony Nardi, John Kapelos and Kenneth Welsh 

About Ian Adams. Born in 1937, he is a Canadian author of fiction and non-fiction novels. Originally a journalist, he is now best known for his writing: his most successful novel to date is Agent of Influence which has also been made into a film. He currently lives in Toronto, Ontario.
___________________________________________________________________________________

A/V info:
=========
General
Format                           : AVI
Format/Info                      : Audio Video Interleave
File size                        : 522 MiB
Duration                         : 1h 36mn
Overall bit rate                 : 760 Kbps
Writing application              : MEncoder UNKNOWN-4.4.1
Writing library                  : MPlayer

AUDIO LANGUAGE=ENGLISH, SUBTITLES=NONE.

Video
-----
Format                           : MPEG-4 Visual
Format profile                   : Advanced Simple@L5
Format settings, BVOP            : 2
Format settings, QPel            : No
Format settings, GMC             : No warppoints
Format settings, Matrix          : Default (H.263)
Codec ID                         : XVID
Codec ID/Hint                    : XviD
Duration                         : 1h 36mn
Bit rate                         : 665 Kbps
Width                            : 544 pixels
Height                           : 400 pixels
Display aspect ratio             : 4:3
Frame rate                       : 23.976 fps
Color space                      : YUV
Chroma subsampling               : 4:2:0
Bit depth                        : 8 bits
Scan type                        : Progressive
Compression mode                 : Lossy
Bits/(Pixel*Frame)               : 0.128
Stream size                      : 457 MiB (88%)
Writing library                  : XviD 1.2.1 (UTC 2008-12-04)

Audio
-----
Format                           : MPEG Audio
Format version                   : Version 1
Format profile                   : Layer 3
Mode                             : Joint stereo
Mode extension                   : MS Stereo
Codec ID                         : 55
Codec ID/Hint                    : MP3
Duration                         : 1h 36mn
Bit rate mode                    : Variable
Bit rate                         : 81.7 Kbps
Channel(s)                       : 2 channels
Sampling rate                    : 48.0 KHz
Compression mode                 : Lossy
Stream size                      : 56.1 MiB (11%)
Alignment                        : Aligned on interleaves
Interleave, duration             : 24 ms (0.58 video frame)
Interleave, preload duration     : 493 ms

